# xmcd
#
# Track frame offsets: 
#        150
#        17932
#        32470
#        51138
#        64223
#        76797
#        93571
#        108665
#        124721
#        139543
#        154871
#        170585
#
# Disc length: 2498 seconds
#
# Revision: 4
# Processed by: cddbd v1.5.2PL0 Copyright (c) Steve Scherf et al.
# Submitted via: ExactAudioCopy v0.99pb4
#
DISCID=9909c00c
DTITLE=Various Artist - Jazz And '80s - Part Two
DYEAR=2007
DGENRE=Jazz
TTITLE0=The Cooltrane Quartet - Holding Back The Years
TTITLE1=Stella Starlight Trio - Tainted Love
TTITLE2=Eve St. Jones - Take On Me
TTITLE3=Cassandra Beck - Material Girl
TTITLE4=Karen Souza - Every Breath You Take
TTITLE5=Jamie Lancaster - True
TTITLE6=Jazzystics - Walking On Sunshine
TTITLE7=Jamie Lancaster and Karen Souza - Billie Jean
TTITLE8=48th St. Collective - Rat In My Kitchen
TTITLE9=Apollinaire Rossi - I Still Haven't Fond What I'm Looking For
TTITLE10=Sarah Menescal - Time After Time
TTITLE11=The Bryan J. White Trio - Shout
EXTD=YEAR: 2007
EXTT0=
EXTT1=
EXTT2=
EXTT3=
EXTT4=
EXTT5=
EXTT6=
EXTT7=
EXTT8=
EXTT9=
EXTT10=
EXTT11=
PLAYORDER=
